# xmcd
#
# Track frame offsets:
#	182
#	15532
#	31182
#	46347
#	61570
#	77922
#	95185
#	115090
#	128650
#	145692
#	159217
#	178607
#
# Disc length: 2561 seconds
#
# Revision: 2
# Processed by: cddbd v1.5.2PL0 Copyright (c) Steve Scherf et al.
# Submitted via: audiograbber 1.83.01
#
DISCID=8b09ff0c
DTITLE=New Country - New Country Music - May 1994
DYEAR=1994
DGENRE=Country
TTITLE0=Bob Woodruff - Bayou Girl
TTITLE1=Reba McEntire - Why Haven't I Heard From You
TTITLE2=Boy Howdy - They Don't Make Them Like That Anymore
TTITLE3=Linda Davis - Company Time
TTITLE4=Ian Tyson - Alcohol In The Bloodstream
TTITLE5=Duane Jarvis - She's Like A Drink
TTITLE6=Charlie Floyd - Southbound Train
TTITLE7=David Lee Murphy - Just Once
TTITLE8=Braian Barrett - The Cross Road
TTITLE9=Tim McGraw - Indian Outlaw
TTITLE10=Sarah Elizabeth Campbell - Running With You
TTITLE11=John McEuen - Red Wing
EXTD=
EXTT0=Woodruff, Bob
EXTT1=MCEntire, Rebba 
EXTT2=Boy Howdy
EXTT3=Davis, Linda
EXTT4=Tyson, Ian
EXTT5=Jarvis, Duane
EXTT6=Floyd, Charlie
EXTT7=Murphy, David Lee
EXTT8=Barnett, Brian
EXTT9=McGraw, Tim
EXTT10=Cambell, Sarah Elizabeth
EXTT11=McEuen, John
PLAYORDER=
